<svg xmlns="http://www.w3.org/2000/svg" xmlns:xlink="http://www.w3.org/1999/xlink" width="138pt" height="1376pt" viewBox="0.00 0.00 137.72 1376.00">
<g id="graph0" class="graph" transform="scale(1 1) rotate(0) translate(4 1372)">
<title>LeftDerivation</title>
<polygon fill="white" stroke="none" points="-4,4 -4,-1372 133.72,-1372 133.72,4 -4,4"/>
<!-- S -->
<g id="node1" class="node">
<title>S</title>
<text text-anchor="middle" x="64.86" y="-1345.8" font-family="Times,serif" font-size="14.00">S</text>
</g>
<!-- Step1 -->
<g id="node2" class="node">
<title>Step1</title>
<text text-anchor="middle" x="64.86" y="-1257" font-family="Times,serif" font-size="14.00">aN2;N1</text>
</g>
<!-- S&#45;&gt;Step1 -->
<g id="edge1" class="edge">
<title>S-&gt;Step1</title>
<path fill="none" stroke="black" d="M64.86,-1332.26C64.86,-1320.33 64.86,-1304.01 64.86,-1290.12"/>
<polygon fill="black" stroke="black" points="64.86,-1280.4 69.36,-1290.4 64.86,-1284.18 64.86,-1290.4 64.86,-1290.4 64.86,-1290.4 64.86,-1284.18 60.36,-1290.4 64.86,-1280.4"/>
<text text-anchor="middle" x="68.36" y="-1301.4" font-family="Times,serif" font-size="14.00">1</text>
</g>
<!-- Step2 -->
<g id="node3" class="node">
<title>Step2</title>
<text text-anchor="middle" x="64.86" y="-1168.2" font-family="Times,serif" font-size="14.00">a=E;N1</text>
</g>
<!-- Step1&#45;&gt;Step2 -->
<g id="edge2" class="edge">
<title>Step1-&gt;Step2</title>
<path fill="none" stroke="black" d="M64.86,-1243.46C64.86,-1231.53 64.86,-1215.21 64.86,-1201.32"/>
<polygon fill="black" stroke="black" points="64.86,-1191.6 69.36,-1201.6 64.86,-1195.38 64.86,-1201.6 64.86,-1201.6 64.86,-1201.6 64.86,-1195.38 60.36,-1201.6 64.86,-1191.6"/>
<text text-anchor="middle" x="68.36" y="-1212.6" font-family="Times,serif" font-size="14.00">5</text>
</g>
<!-- Step3 -->
<g id="node4" class="node">
<title>Step3</title>
<text text-anchor="middle" x="64.86" y="-1079.4" font-family="Times,serif" font-size="14.00">a=aT'E';N1</text>
</g>
<!-- Step2&#45;&gt;Step3 -->
<g id="edge3" class="edge">
<title>Step2-&gt;Step3</title>
<path fill="none" stroke="black" d="M64.86,-1154.66C64.86,-1142.73 64.86,-1126.41 64.86,-1112.52"/>
<polygon fill="black" stroke="black" points="64.86,-1102.8 69.36,-1112.8 64.86,-1106.58 64.86,-1112.8 64.86,-1112.8 64.86,-1112.8 64.86,-1106.58 60.36,-1112.8 64.86,-1102.8"/>
<text text-anchor="middle" x="71.86" y="-1123.8" font-family="Times,serif" font-size="14.00">10</text>
</g>
<!-- Step4 -->
<g id="node5" class="node">
<title>Step4</title>
<text text-anchor="middle" x="64.86" y="-990.6" font-family="Times,serif" font-size="14.00">a=aE';N1</text>
</g>
<!-- Step3&#45;&gt;Step4 -->
<g id="edge4" class="edge">
<title>Step3-&gt;Step4</title>
<path fill="none" stroke="black" d="M64.86,-1065.86C64.86,-1053.93 64.86,-1037.61 64.86,-1023.72"/>
<polygon fill="black" stroke="black" points="64.86,-1014 69.36,-1024 64.86,-1017.78 64.86,-1024 64.86,-1024 64.86,-1024 64.86,-1017.78 60.36,-1024 64.86,-1014"/>
<text text-anchor="middle" x="71.86" y="-1035" font-family="Times,serif" font-size="14.00">17</text>
</g>
<!-- Step5 -->
<g id="node6" class="node">
<title>Step5</title>
<text text-anchor="middle" x="64.86" y="-901.8" font-family="Times,serif" font-size="14.00">a=a+TE';N1</text>
</g>
<!-- Step4&#45;&gt;Step5 -->
<g id="edge5" class="edge">
<title>Step4-&gt;Step5</title>
<path fill="none" stroke="black" d="M64.86,-977.06C64.86,-965.13 64.86,-948.81 64.86,-934.92"/>
<polygon fill="black" stroke="black" points="64.86,-925.2 69.36,-935.2 64.86,-928.98 64.86,-935.2 64.86,-935.2 64.86,-935.2 64.86,-928.98 60.36,-935.2 64.86,-925.2"/>
<text text-anchor="middle" x="71.86" y="-946.2" font-family="Times,serif" font-size="14.00">11</text>
</g>
<!-- Step6 -->
<g id="node7" class="node">
<title>Step6</title>
<text text-anchor="middle" x="64.86" y="-813" font-family="Times,serif" font-size="14.00">a=a+-(E)T'E';N1</text>
</g>
<!-- Step5&#45;&gt;Step6 -->
<g id="edge6" class="edge">
<title>Step5-&gt;Step6</title>
<path fill="none" stroke="black" d="M64.86,-888.26C64.86,-876.33 64.86,-860.01 64.86,-846.12"/>
<polygon fill="black" stroke="black" points="64.86,-836.4 69.36,-846.4 64.86,-840.18 64.86,-846.4 64.86,-846.4 64.86,-846.4 64.86,-840.18 60.36,-846.4 64.86,-836.4"/>
<text text-anchor="middle" x="71.86" y="-857.4" font-family="Times,serif" font-size="14.00">14</text>
</g>
<!-- Step7 -->
<g id="node8" class="node">
<title>Step7</title>
<text text-anchor="middle" x="64.86" y="-724.2" font-family="Times,serif" font-size="14.00">a=a+-(aT'E')T'E';N1</text>
</g>
<!-- Step6&#45;&gt;Step7 -->
<g id="edge7" class="edge">
<title>Step6-&gt;Step7</title>
<path fill="none" stroke="black" d="M64.86,-799.46C64.86,-787.53 64.86,-771.21 64.86,-757.32"/>
<polygon fill="black" stroke="black" points="64.86,-747.6 69.36,-757.6 64.86,-751.38 64.86,-757.6 64.86,-757.6 64.86,-757.6 64.86,-751.38 60.36,-757.6 64.86,-747.6"/>
<text text-anchor="middle" x="71.86" y="-768.6" font-family="Times,serif" font-size="14.00">10</text>
</g>
<!-- Step8 -->
<g id="node9" class="node">
<title>Step8</title>
<text text-anchor="middle" x="64.86" y="-635.4" font-family="Times,serif" font-size="14.00">a=a+-(aE')T'E';N1</text>
</g>
<!-- Step7&#45;&gt;Step8 -->
<g id="edge8" class="edge">
<title>Step7-&gt;Step8</title>
<path fill="none" stroke="black" d="M64.86,-710.66C64.86,-698.73 64.86,-682.41 64.86,-668.52"/>
<polygon fill="black" stroke="black" points="64.86,-658.8 69.36,-668.8 64.86,-662.58 64.86,-668.8 64.86,-668.8 64.86,-668.8 64.86,-662.58 60.36,-668.8 64.86,-658.8"/>
<text text-anchor="middle" x="71.86" y="-679.8" font-family="Times,serif" font-size="14.00">17</text>
</g>
<!-- Step9 -->
<g id="node10" class="node">
<title>Step9</title>
<text text-anchor="middle" x="64.86" y="-546.6" font-family="Times,serif" font-size="14.00">a=a+-(a)T'E';N1</text>
</g>
<!-- Step8&#45;&gt;Step9 -->
<g id="edge9" class="edge">
<title>Step8-&gt;Step9</title>
<path fill="none" stroke="black" d="M64.86,-621.86C64.86,-609.93 64.86,-593.61 64.86,-579.72"/>
<polygon fill="black" stroke="black" points="64.86,-570 69.36,-580 64.86,-573.78 64.86,-580 64.86,-580 64.86,-580 64.86,-573.78 60.36,-580 64.86,-570"/>
<text text-anchor="middle" x="71.86" y="-591" font-family="Times,serif" font-size="14.00">12</text>
</g>
<!-- Step10 -->
<g id="node11" class="node">
<title>Step10</title>
<text text-anchor="middle" x="64.86" y="-457.8" font-family="Times,serif" font-size="14.00">a=a+-(a)E';N1</text>
</g>
<!-- Step9&#45;&gt;Step10 -->
<g id="edge10" class="edge">
<title>Step9-&gt;Step10</title>
<path fill="none" stroke="black" d="M64.86,-533.06C64.86,-521.13 64.86,-504.81 64.86,-490.92"/>
<polygon fill="black" stroke="black" points="64.86,-481.2 69.36,-491.2 64.86,-484.98 64.86,-491.2 64.86,-491.2 64.86,-491.2 64.86,-484.98 60.36,-491.2 64.86,-481.2"/>
<text text-anchor="middle" x="71.86" y="-502.2" font-family="Times,serif" font-size="14.00">17</text>
</g>
<!-- Step11 -->
<g id="node12" class="node">
<title>Step11</title>
<text text-anchor="middle" x="64.86" y="-369" font-family="Times,serif" font-size="14.00">a=a+-(a)+TE';N1</text>
</g>
<!-- Step10&#45;&gt;Step11 -->
<g id="edge11" class="edge">
<title>Step10-&gt;Step11</title>
<path fill="none" stroke="black" d="M64.86,-444.26C64.86,-432.33 64.86,-416.01 64.86,-402.12"/>
<polygon fill="black" stroke="black" points="64.86,-392.4 69.36,-402.4 64.86,-396.18 64.86,-402.4 64.86,-402.4 64.86,-402.4 64.86,-396.18 60.36,-402.4 64.86,-392.4"/>
<text text-anchor="middle" x="71.86" y="-413.4" font-family="Times,serif" font-size="14.00">11</text>
</g>
<!-- Step12 -->
<g id="node13" class="node">
<title>Step12</title>
<text text-anchor="middle" x="64.86" y="-280.2" font-family="Times,serif" font-size="14.00">a=a+-(a)+aT'E';N1</text>
</g>
<!-- Step11&#45;&gt;Step12 -->
<g id="edge12" class="edge">
<title>Step11-&gt;Step12</title>
<path fill="none" stroke="black" d="M64.86,-355.46C64.86,-343.53 64.86,-327.21 64.86,-313.32"/>
<polygon fill="black" stroke="black" points="64.86,-303.6 69.36,-313.6 64.86,-307.38 64.86,-313.6 64.86,-313.6 64.86,-313.6 64.86,-307.38 60.36,-313.6 64.86,-303.6"/>
<text text-anchor="middle" x="71.86" y="-324.6" font-family="Times,serif" font-size="14.00">15</text>
</g>
<!-- Step13 -->
<g id="node14" class="node">
<title>Step13</title>
<text text-anchor="middle" x="64.86" y="-191.4" font-family="Times,serif" font-size="14.00">a=a+-(a)+aE';N1</text>
</g>
<!-- Step12&#45;&gt;Step13 -->
<g id="edge13" class="edge">
<title>Step12-&gt;Step13</title>
<path fill="none" stroke="black" d="M64.86,-266.66C64.86,-254.73 64.86,-238.41 64.86,-224.52"/>
<polygon fill="black" stroke="black" points="64.86,-214.8 69.36,-224.8 64.86,-218.58 64.86,-224.8 64.86,-224.8 64.86,-224.8 64.86,-218.58 60.36,-224.8 64.86,-214.8"/>
<text text-anchor="middle" x="71.86" y="-235.8" font-family="Times,serif" font-size="14.00">17</text>
</g>
<!-- Step14 -->
<g id="node15" class="node">
<title>Step14</title>
<text text-anchor="middle" x="64.86" y="-102.6" font-family="Times,serif" font-size="14.00">a=a+-(a)+a;N1</text>
</g>
<!-- Step13&#45;&gt;Step14 -->
<g id="edge14" class="edge">
<title>Step13-&gt;Step14</title>
<path fill="none" stroke="black" d="M64.86,-177.86C64.86,-165.93 64.86,-149.61 64.86,-135.72"/>
<polygon fill="black" stroke="black" points="64.86,-126 69.36,-136 64.86,-129.78 64.86,-136 64.86,-136 64.86,-136 64.86,-129.78 60.36,-136 64.86,-126"/>
<text text-anchor="middle" x="71.86" y="-147" font-family="Times,serif" font-size="14.00">12</text>
</g>
<!-- Step15 -->
<g id="node16" class="node">
<title>Step15</title>
<text text-anchor="middle" x="64.86" y="-13.8" font-family="Times,serif" font-size="14.00">a=a+-(a)+a;</text>
</g>
<!-- Step14&#45;&gt;Step15 -->
<g id="edge15" class="edge">
<title>Step14-&gt;Step15</title>
<path fill="none" stroke="black" d="M64.86,-89.06C64.86,-77.13 64.86,-60.81 64.86,-46.92"/>
<polygon fill="black" stroke="black" points="64.86,-37.2 69.36,-47.2 64.86,-40.98 64.86,-47.2 64.86,-47.2 64.86,-47.2 64.86,-40.98 60.36,-47.2 64.86,-37.2"/>
<text text-anchor="middle" x="68.36" y="-58.2" font-family="Times,serif" font-size="14.00">3</text>
</g>
</g>
</svg>